<svg width="203" height="88" viewBox="0 0 203 88" fill="none" xmlns="http://www.w3.org/2000/svg">
<line y1="-3.5" x2="45.8922" y2="-3.5" transform="matrix(0.82273 -0.568432 0.970941 0.239321 18.6802 33.489)" stroke="black" stroke-width="7"/>
<line y1="-3.5" x2="27.4814" y2="-3.5" transform="matrix(0.87453 0.484972 -0.959258 0.282532 48.7706 8.79858)" stroke="black" stroke-width="7"/>
<line y1="-3.5" x2="57.9821" y2="-3.5" transform="matrix(-0.821165 0.570691 -0.974693 -0.223548 101.645 2)" stroke="black" stroke-width="7"/>
<line y1="-3.5" x2="51.4938" y2="-3.5" transform="matrix(0.769515 0.638628 -0.981287 0.192552 101.803 2.07788)" stroke="black" stroke-width="7"/>
<line y1="-3.5" x2="31.2254" y2="-3.5" transform="matrix(0.903593 -0.428393 0.947864 0.318675 129.86 21.3611)" stroke="black" stroke-width="7"/>
<line y1="-3.5" x2="39.2894" y2="-3.5" transform="matrix(0.778385 0.627788 -0.973196 0.229978 151.16 9.5564)" stroke="black" stroke-width="7"/>
<path d="M15.9 76.45C13.1667 76.45 10.6 76.0833 8.2 75.35C5.83333 74.6167 3.81667 73.5667 2.15 72.2L4.35 67.5C6.08333 68.8 7.88333 69.7667 9.75 70.4C11.65 71 13.7167 71.3 15.95 71.3C18.4167 71.3 20.3167 70.8667 21.65 70C23.0167 69.1333 23.7 67.9167 23.7 66.35C23.7 65.0167 23.0667 64 21.8 63.3C20.5667 62.5667 18.5167 61.8833 15.65 61.25C11.1833 60.2833 7.93333 59.0333 5.9 57.5C3.86667 55.9667 2.85 53.7333 2.85 50.8C2.85 48.7 3.41667 46.8333 4.55 45.2C5.68333 43.5667 7.28333 42.2833 9.35 41.35C11.45 40.4167 13.8667 39.95 16.6 39.95C19.1 39.95 21.4667 40.3333 23.7 41.1C25.9667 41.8333 27.8167 42.8667 29.25 44.2L27.1 48.9C23.9333 46.3667 20.4333 45.1 16.6 45.1C14.3 45.1 12.4833 45.5833 11.15 46.55C9.81667 47.4833 9.15 48.7667 9.15 50.4C9.15 51.8 9.73333 52.8667 10.9 53.6C12.1 54.3333 14.1333 55.0167 17 55.65C19.9667 56.35 22.3833 57.1167 24.25 57.95C26.1167 58.75 27.55 59.8 28.55 61.1C29.55 62.3667 30.05 63.9667 30.05 65.9C30.05 68.0333 29.4833 69.9 28.35 71.5C27.2167 73.0667 25.5833 74.2833 23.45 75.15C21.3167 76.0167 18.8 76.45 15.9 76.45ZM52.8277 76L41.7777 64.35V76H35.5777V39.2H41.7777V61.9L52.1777 50.8H59.7277L48.3777 62.85L60.6277 76H52.8277ZM86.5285 50.75L74.7785 77.7C73.4452 80.8333 71.7452 83.1167 69.6785 84.55C67.6118 85.9833 65.0618 86.9333 62.0285 87.4L60.6285 82.6C62.9952 82.0667 64.7618 81.3833 65.9285 80.55C67.1285 79.75 68.0952 78.55 68.8285 76.95L69.6285 75.1L59.1285 50.75H65.6785L72.9285 68.9L80.3285 50.75H86.5285ZM112.127 57.6C114.194 58.2 115.777 59.25 116.877 60.75C118.01 62.25 118.577 64.1 118.577 66.3C118.577 69.3333 117.494 71.7167 115.327 73.45C113.194 75.15 110.21 76 106.377 76H90.227V40.4H105.877C109.544 40.4 112.427 41.2333 114.527 42.9C116.627 44.5333 117.677 46.8 117.677 49.7C117.677 51.5667 117.177 53.2 116.177 54.6C115.21 55.9667 113.86 56.9667 112.127 57.6ZM96.527 55.4H104.827C109.294 55.4 111.527 53.7333 111.527 50.4C111.527 48.7333 110.977 47.4833 109.877 46.65C108.777 45.8167 107.094 45.4 104.827 45.4H96.527V55.4ZM105.677 71C108.01 71 109.71 70.5833 110.777 69.75C111.877 68.9167 112.427 67.6 112.427 65.8C112.427 63.9667 111.877 62.6167 110.777 61.75C109.71 60.8833 108.01 60.45 105.677 60.45H96.527V71H105.677ZM148.448 50.75V76H142.298V71.95C141.532 73.35 140.432 74.45 138.998 75.25C137.565 76.0167 135.932 76.4 134.098 76.4C131.898 76.4 129.948 75.8667 128.248 74.8C126.548 73.7333 125.232 72.2167 124.298 70.25C123.365 68.2833 122.898 66 122.898 63.4C122.898 60.8 123.365 58.5 124.298 56.5C125.265 54.4667 126.598 52.9 128.298 51.8C129.998 50.6667 131.932 50.1 134.098 50.1C135.932 50.1 137.565 50.5 138.998 51.3C140.432 52.0667 141.532 53.15 142.298 54.55V50.75H148.448ZM135.798 71.5C137.865 71.5 139.465 70.7833 140.598 69.35C141.732 67.9167 142.298 65.9 142.298 63.3C142.298 60.6333 141.732 58.5833 140.598 57.15C139.465 55.7167 137.848 55 135.748 55C133.682 55 132.065 55.75 130.898 57.25C129.765 58.7167 129.198 60.7667 129.198 63.4C129.198 66 129.765 68 130.898 69.4C132.065 70.8 133.698 71.5 135.798 71.5ZM168.855 50.15C169.822 50.15 170.655 50.2833 171.355 50.55L171.305 56.25C170.239 55.8167 169.139 55.6 168.005 55.6C165.872 55.6 164.239 56.2167 163.105 57.45C162.005 58.6833 161.455 60.3167 161.455 62.35V76H155.255V57.9C155.255 55.2333 155.122 52.85 154.855 50.75H160.705L161.205 55.2C161.839 53.5667 162.839 52.3167 164.205 51.45C165.572 50.5833 167.122 50.15 168.855 50.15ZM183.841 76.4C179.275 76.4 175.641 75.3333 172.941 73.2L174.691 68.8C177.391 70.8 180.475 71.8 183.941 71.8C185.441 71.8 186.591 71.55 187.391 71.05C188.225 70.55 188.641 69.85 188.641 68.95C188.641 68.1833 188.358 67.5833 187.791 67.15C187.225 66.6833 186.258 66.2833 184.891 65.95L180.691 65C176.091 64 173.791 61.65 173.791 57.95C173.791 56.4167 174.225 55.0667 175.091 53.9C175.958 52.7 177.175 51.7667 178.741 51.1C180.308 50.4333 182.125 50.1 184.191 50.1C185.991 50.1 187.725 50.3833 189.391 50.95C191.058 51.4833 192.525 52.2667 193.791 53.3L191.941 57.55C189.408 55.6833 186.808 54.75 184.141 54.75C182.708 54.75 181.591 55.0167 180.791 55.55C179.991 56.0833 179.591 56.8167 179.591 57.75C179.591 58.4833 179.825 59.0667 180.291 59.5C180.791 59.9333 181.625 60.3 182.791 60.6L187.091 61.55C189.591 62.1167 191.408 63 192.541 64.2C193.708 65.3667 194.291 66.9 194.291 68.8C194.291 71.1333 193.358 72.9833 191.491 74.35C189.625 75.7167 187.075 76.4 183.841 76.4Z" fill="black"/>
</svg>
