<?xml version="1.0" standalone="no"?>
<!DOCTYPE svg PUBLIC "-//W3C//DTD SVG 20010904//EN"
 "http://www.w3.org/TR/2001/REC-SVG-20010904/DTD/svg10.dtd">
<svg version="1.0" xmlns="http://www.w3.org/2000/svg"
 width="640.000000pt" height="640.000000pt" viewBox="0 0 640.000000 640.000000"
 preserveAspectRatio="xMidYMid meet">
<metadata>
Created by potrace 1.11, written by Peter Selinger 2001-2013
</metadata>
<g transform="translate(0.000000,640.000000) scale(0.100000,-0.100000)"
fill="#000000" stroke="none">
<path d="M730 6114 c-41 -24 -134 -76 -205 -115 -128 -70 -132 -73 -165 -133
-18 -34 -88 -158 -155 -276 -68 -118 -135 -237 -150 -265 -15 -27 -32 -55 -37
-62 -5 -6 -7 -26 -4 -45 11 -65 16 -94 31 -198 9 -58 18 -114 20 -125 2 -11 7
-42 10 -69 3 -27 8 -52 9 -55 2 -3 7 -33 10 -66 4 -33 9 -67 11 -75 2 -8 11
-64 20 -124 l16 -108 100 -142 c55 -77 192 -271 305 -430 l204 -289 0 -569 0
-569 183 -267 c101 -147 222 -323 269 -392 46 -69 106 -156 133 -195 l48 -70
183 -73 184 -74 52 -66 c29 -37 58 -74 65 -82 23 -28 585 -735 601 -756 12
-16 95 -48 292 -113 l275 -91 208 0 209 0 136 49 c76 28 197 71 271 98 129 46
136 49 173 98 22 27 45 57 51 65 20 25 110 141 163 210 80 103 296 384 324
420 14 18 32 40 40 50 14 16 501 260 519 260 5 0 59 75 122 168 62 92 145 214
184 272 270 397 342 507 343 520 1 36 13 326 17 440 2 69 7 206 10 305 14 441
9 401 60 496 24 46 61 116 81 154 19 39 39 77 44 85 5 8 43 78 83 155 41 77
99 187 129 245 31 58 58 119 62 135 7 35 12 61 26 135 6 30 12 64 14 75 2 11
25 131 50 266 l46 247 -36 78 c-20 44 -57 124 -83 179 -26 55 -72 152 -102
215 -98 209 -66 177 -322 322 l-227 128 -333 -95 c-210 -61 -345 -105 -367
-120 -19 -13 -93 -67 -164 -119 -126 -94 -160 -110 -294 -146 -44 -11 -68 -7
-492 82 -25 5 -56 11 -70 14 -14 2 -36 7 -50 10 -14 4 -34 8 -45 10 -11 1 -62
12 -114 23 -90 20 -108 20 -241 6 -136 -15 -204 -20 -265 -19 -76 1 -285 12
-352 19 -25 3 -84 -5 -149 -21 -59 -14 -114 -27 -123 -29 -9 -2 -64 -15 -124
-29 -59 -14 -118 -28 -130 -30 -12 -2 -70 -16 -130 -31 l-107 -26 -101 35
c-88 31 -166 78 -209 126 -3 3 -44 38 -92 78 l-86 73 -385 129 c-212 72 -389
130 -393 129 -5 0 -43 -21 -84 -45z m326 -244 c115 -39 259 -87 319 -107 109
-36 111 -37 253 -156 143 -119 144 -120 275 -169 73 -27 146 -49 162 -50 17
-1 149 27 295 61 398 95 452 107 485 105 17 -1 84 -5 150 -10 198 -14 338 -9
523 16 35 5 73 7 85 4 12 -2 33 -6 47 -9 14 -2 79 -16 145 -29 66 -14 230 -48
365 -76 135 -27 251 -52 258 -55 7 -3 80 15 162 39 134 39 156 49 222 98 245
183 244 182 383 222 251 72 301 86 360 103 l61 16 167 -94 c161 -91 167 -96
187 -141 11 -26 42 -94 69 -150 27 -57 74 -157 105 -223 l57 -120 -26 -145
c-15 -80 -29 -156 -31 -170 -3 -14 -19 -97 -35 -185 l-31 -160 -101 -190 c-55
-104 -117 -221 -137 -260 -20 -38 -63 -119 -95 -180 -32 -60 -71 -134 -86
-162 -18 -33 -24 -53 -16 -53 9 0 9 -2 0 -8 -14 -9 -14 -13 -38 -752 -4 -102
-8 -223 -10 -270 -2 -47 -4 -95 -5 -107 0 -12 -34 -72 -76 -135 -43 -62 -147
-216 -233 -343 -85 -126 -178 -264 -206 -305 l-50 -75 -140 -72 c-77 -40 -145
-72 -151 -73 -7 0 -14 10 -17 23 -7 34 -177 589 -187 615 -6 13 -10 30 -10 38
0 9 -74 126 -165 260 l-165 245 0 178 0 178 63 13 c34 7 67 14 72 15 6 2 91
19 190 40 l181 38 87 168 87 168 -87 45 c-47 25 -89 43 -92 41 -3 -2 -33 -57
-66 -124 l-60 -120 -45 -10 c-25 -6 -56 -13 -70 -15 -14 -2 -99 -20 -190 -40
-91 -20 -189 -39 -217 -42 l-53 -7 0 -294 0 -295 167 -246 c177 -264 167 -243
247 -507 15 -49 52 -170 82 -268 30 -97 54 -181 54 -186 0 -5 -8 -12 -17 -16
-10 -3 -33 -25 -50 -48 -18 -23 -86 -110 -150 -193 -65 -83 -129 -166 -143
-185 -14 -18 -36 -46 -50 -61 l-25 -29 -110 35 c-60 19 -148 46 -195 60 -47
14 -137 41 -200 60 -63 19 -148 45 -187 56 l-73 22 0 59 0 58 142 73 141 73
119 234 118 234 0 94 0 94 -492 -5 c-271 -2 -557 -5 -635 -5 l-143 -1 0 -100
0 -100 155 -236 155 -235 121 -57 120 -57 -3 -64 -3 -65 -175 -52 c-96 -28
-267 -79 -380 -112 l-205 -60 -20 22 c-24 27 -42 49 -244 303 -89 112 -161
207 -161 213 0 5 12 49 26 97 14 49 34 117 43 153 10 36 46 162 81 280 l63
215 148 223 149 223 0 340 0 339 -52 0 c-29 0 -69 4 -88 9 -31 9 -62 15 -125
25 -11 2 -45 8 -75 15 -30 6 -68 13 -85 15 -39 5 -177 35 -180 38 -1 2 -23 60
-49 130 l-48 127 -87 -31 c-47 -16 -89 -33 -93 -36 -10 -11 126 -365 143 -368
8 -2 91 -19 186 -38 94 -19 189 -37 211 -41 21 -3 54 -10 72 -15 18 -5 35 -9
39 -8 30 3 31 -4 31 -221 l0 -219 -136 -202 c-74 -111 -140 -214 -145 -229
-10 -26 -157 -525 -185 -631 -8 -30 -18 -58 -22 -62 -4 -3 -61 15 -127 42
l-120 47 -82 119 c-45 66 -112 164 -150 219 -37 55 -128 187 -200 293 l-133
194 0 569 0 569 -136 193 c-74 105 -142 201 -150 212 -167 228 -335 478 -338
506 -3 19 -10 66 -16 104 -6 39 -13 81 -15 95 -2 14 -7 45 -10 70 -9 62 -34
231 -56 363 -10 63 -9 70 12 105 12 20 36 62 52 92 17 30 39 69 49 85 10 17
21 37 25 45 4 8 28 51 53 95 26 44 62 109 81 143 31 58 42 68 117 113 45 27
85 49 87 49 2 0 30 16 62 35 32 19 63 35 69 35 7 0 106 -32 220 -70z m2554
-4050 c0 -4 -33 -72 -73 -151 l-74 -144 -115 -59 -116 -60 -102 50 -103 49
-102 155 c-56 85 -98 157 -94 160 12 9 779 9 779 0z m-17 -996 c194 -58 357
-109 364 -113 11 -6 -1 -24 -72 -107 -19 -23 -61 -40 -362 -145 l-111 -39
-169 0 -168 0 -140 46 c-77 25 -149 49 -160 54 -11 5 -56 20 -100 34 -62 20
-85 33 -98 54 -9 15 -30 42 -47 61 -17 19 -27 38 -23 42 7 6 290 92 343 104 8
2 47 13 85 25 52 16 244 72 303 89 2 1 161 -47 355 -105z"/>
<path d="M1595 3887 c-132 -33 -241 -61 -242 -62 -3 -1 45 -186 49 -190 2 -2
107 22 233 54 l230 57 140 -32 c77 -17 164 -38 194 -45 l53 -14 24 -64 c14
-36 26 -66 27 -68 3 -2 179 56 184 61 2 1 -15 56 -37 122 l-40 120 -143 33
c-78 18 -197 46 -264 62 -68 16 -133 29 -145 28 -13 -1 -131 -28 -263 -62z"/>
<path d="M4558 3885 c-2 -2 -23 -6 -48 -10 -24 -4 -47 -8 -50 -10 -3 -2 -24
-6 -46 -9 -22 -4 -51 -9 -64 -11 -14 -3 -41 -8 -60 -11 -87 -14 -225 -45 -231
-52 -6 -8 -67 -169 -71 -190 -2 -8 31 -26 86 -48 49 -19 90 -33 91 -32 2 2 12
26 24 53 l22 51 102 18 c96 18 121 22 157 31 86 19 118 16 276 -25 87 -23 170
-44 184 -46 14 -3 41 -11 61 -19 l36 -14 23 87 c13 48 25 92 27 99 5 13 -25
22 -287 89 -182 46 -225 55 -232 49z"/>
</g>
</svg>
