<svg width="1133" height="913" viewBox="0 0 1133 913" fill="none" xmlns="http://www.w3.org/2000/svg">
<path d="M0 0H1133V913H0V0Z" fill="white"/>
<line y1="-3.5" x2="295.606" y2="-3.5" transform="matrix(0.999997 -0.00251747 0.00191773 0.999998 290.344 398.694)" stroke="#0AC6F6" stroke-width="7"/>
<line y1="-3.5" x2="225.797" y2="-3.5" transform="matrix(0.999957 0.00931508 -0.00709608 0.999975 268.817 455.771)" stroke="#0AC6F6" stroke-width="7"/>
<line y1="-3.5" x2="198.515" y2="-3.5" transform="matrix(0.999996 -0.00281345 0.00219863 0.999998 316.853 516.187)" stroke="#0AC6F6" stroke-width="7"/>
<line y1="-2.5" x2="82.3228" y2="-2.5" transform="matrix(0.743686 0.668529 -0.650279 0.759696 314.726 343.436)" stroke="#0AC6F6" stroke-width="5"/>
<line y1="-2.5" x2="41.5898" y2="-2.5" transform="matrix(-0.671462 0.741039 -0.724423 -0.689355 340.504 451.305)" stroke="#0AC6F6" stroke-width="5"/>
<line y1="-2.5" x2="80.6197" y2="-2.5" transform="matrix(-0.999992 0.00395219 -0.00301067 -0.999995 317.154 480.789)" stroke="#0AC6F6" stroke-width="5"/>
<line y1="-3.5" x2="57.3202" y2="-3.5" transform="matrix(0.854035 0.520216 -0.501726 0.865027 490.875 456.809)" stroke="#0AC6F6" stroke-width="7"/>
<line y1="-2.5" x2="69.8179" y2="-2.5" transform="matrix(0.999877 0.0157112 -0.019715 0.999806 248.134 343.436)" stroke="#06BEF2" stroke-width="5"/>
<line y1="-2.5" x2="44.2059" y2="-2.5" transform="matrix(-0.801804 -0.597587 0.578748 -0.815507 389.912 451.305)" stroke="#0AC6F6" stroke-width="5"/>
<line y1="-2.5" x2="155.877" y2="-2.5" transform="matrix(0.999892 0.0146858 -0.00969746 0.999953 198.979 427.967)" stroke="#06BEF2" stroke-width="5"/>
<ellipse cx="244.464" cy="339.733" rx="10.9064" ry="11.3433" fill="#0AC6F6"/>
<path d="M202.821 425.324C202.821 431.589 198.16 436.667 192.411 436.667C186.661 436.667 182 431.589 182 425.324C182 419.059 186.661 413.981 192.411 413.981C198.16 413.981 202.821 419.059 202.821 425.324Z" fill="#0AC6F6"/>
<ellipse cx="311.389" cy="511.431" rx="10.4106" ry="10.8277" fill="#0AC6F6"/>
<line y1="-2.5" x2="50.2925" y2="-2.5" transform="matrix(-0.555271 0.831669 -0.81878 -0.574107 378.097 511.844)" stroke="#0AC6F6" stroke-width="5"/>
<line y1="-2.5" x2="91.3664" y2="-2.5" transform="matrix(-0.999923 0.0124225 -0.00946338 -0.999955 354.837 551.705)" stroke="#0AC6F6" stroke-width="5"/>
<ellipse cx="228.6" cy="483.587" rx="10.9064" ry="10.8277" fill="#0AC6F6"/>
<ellipse cx="261.319" cy="451.619" rx="10.9064" ry="10.8277" fill="#0AC6F6"/>
<ellipse cx="254.379" cy="555.773" rx="10.9064" ry="10.8277" fill="#0AC6F6"/>
<ellipse cx="282.14" cy="391.809" rx="9.91489" ry="11.859" fill="#0AC6F6"/>
<line y1="-3.5" x2="81.0867" y2="-3.5" transform="matrix(-0.900729 0.434381 -0.417309 -0.908765 655.208 356.645)" stroke="#0AC6F6" stroke-width="7"/>
<line y1="-3.5" x2="129.082" y2="-3.5" transform="matrix(0.999785 -0.0207557 0.0158125 0.999875 655.763 364.053)" stroke="#0AC6F6" stroke-width="7"/>
<line y1="-3.5" x2="33.3707" y2="-3.5" transform="matrix(-0.869028 0.494762 -0.476588 -0.879126 808.801 339.033)" stroke="#0AC6F6" stroke-width="7"/>
<line y1="-3.5" x2="32.3704" y2="-3.5" transform="matrix(0.663615 0.748074 -0.731677 0.681651 803.431 343.436)" stroke="#0AC6F6" stroke-width="7"/>
<line y1="-3.5" x2="28.4797" y2="-3.5" transform="matrix(0.90513 0.425136 -0.408273 0.91286 824.912 367.651)" stroke="#0AC6F6" stroke-width="7"/>
<line y1="-3.5" x2="23.3393" y2="-3.5" transform="matrix(0.138066 0.990423 -0.989453 0.144855 846.394 374.256)" stroke="#0AC6F6" stroke-width="7"/>
<line y1="-3.5" x2="38.1887" y2="-3.5" transform="matrix(0.596281 0.802776 -0.784733 0.619834 849.979 397.481)" stroke="#0AC6F6" stroke-width="7"/>
<line y1="-3.5" x2="36.8939" y2="-3.5" transform="matrix(-0.619707 0.784833 -0.769769 -0.638322 872.172 418.284)" stroke="#0AC6F6" stroke-width="7"/>
<line y1="-3.5" x2="22.8535" y2="-3.5" transform="matrix(0.962653 0.270737 -0.255681 0.966761 832.979 446.979)" stroke="#0AC6F6" stroke-width="7"/>
<line y1="-3.5" x2="26.2166" y2="-3.5" transform="matrix(-0.976501 0.215513 -0.203211 -0.979135 834.579 440.298)" stroke="#0AC6F6" stroke-width="7"/>
<line y1="-3.5" x2="31.7022" y2="-3.5" transform="matrix(0.824062 0.566499 -0.463915 0.88588 784.812 435.272)" stroke="#0AC6F6" stroke-width="7"/>
<line y1="-3.5" x2="64.2087" y2="-3.5" transform="matrix(0.725364 -0.688366 0.670453 0.741952 747.19 478.993)" stroke="#0AC6F6" stroke-width="7"/>
<line y1="-3.5" x2="65.7976" y2="-3.5" transform="matrix(0.799907 0.600125 -0.581291 0.813696 822.764 514.045)" stroke="#0AC6F6" stroke-width="7"/>
<line y1="-3.5" x2="134.517" y2="-3.5" transform="matrix(0.998951 -0.0457817 0.0348905 0.999391 693.443 521.482)" stroke="#0AC6F6" stroke-width="7"/>
<line y1="-3.5" x2="65.3888" y2="-3.5" transform="matrix(0.657563 0.7534 -0.657563 0.7534 650.446 472.219)" stroke="#0AC6F6" stroke-width="7"/>
<line y1="-3.5" x2="107.932" y2="-3.5" transform="matrix(0.976403 0.215957 -0.170318 0.985389 513.323 515.628)" stroke="#0AC6F6" stroke-width="7"/>
<line y1="-3.5" x2="71.9107" y2="-3.5" transform="matrix(-0.87505 0.484032 -0.466018 -0.884775 677.319 496.849)" stroke="#0AC6F6" stroke-width="7"/>
</svg>
